#N canvas 72 96 1848 984 12;
#X obj 17 108 analogInput0~;
#X obj 17 244 output~;
#X obj 191 244 output~;
#X obj 361 244 output~;
#X obj 541 244 output~;
#X obj 189 108 analogInput1~;
#X obj 359 108 analogInput2~;
#X obj 541 108 analogInput3~;
#X obj 16 203 FMSynth~ 10 200 400;
#X obj 540 203 FMSynth~ 25 300 1200;
#X obj 190 202 FMSynth~ 20 400 800;
#X obj 360 203 FMSynth~ 1 20 50;
#X connect 0 0 8 0;
#X connect 5 0 10 0;
#X connect 6 0 11 0;
#X connect 7 0 9 0;
#X connect 8 0 1 0;
#X connect 9 0 4 0;
#X connect 10 0 2 0;
#X connect 11 0 3 0;
