#N canvas 72 96 1848 984 12;
#X obj 343 229 loadbang;
#X obj 231 250 *~;
#X obj 246 297 reverbA~;
#X obj 250 192 osc~;
#X msg 310 259 127;
#X obj 249 361 *~ 0.5;
#X obj 49 223 mute-below-thresh~ 0.01;
#X obj 103 136 hip~ 0.02;
#X obj 102 162 lop~ 20;
#X obj 69 184 *~ 5;
#X obj 87 22 inlet~;
#X obj 250 78 osc~ \$1;
#X obj 249 116 *~ \$2;
#X obj 249 151 +~ \$3;
#X obj 249 386 outlet~;
#X connect 0 0 4 0;
#X connect 1 0 2 0;
#X connect 2 0 5 0;
#X connect 3 0 1 1;
#X connect 4 0 2 1;
#X connect 5 0 14 0;
#X connect 6 0 1 0;
#X connect 7 0 8 0;
#X connect 8 0 9 0;
#X connect 9 0 6 0;
#X connect 10 0 7 0;
#X connect 11 0 12 0;
#X connect 12 0 13 0;
#X connect 13 0 3 0;
